<svg xmlns="http://www.w3.org/2000/svg" xmlns:xlink="http://www.w3.org/1999/xlink" id="Layer_1" x="0" y="0" version="1.1" viewBox="0 0 259 166" style="enable-background:new 0 0 259 166" xml:space="preserve"><style type="text/css">.st1{fill:url(#SVGID_1_)}.st2{opacity:.1}.st3{opacity:.85;fill:url(#SVGID_2_)}</style><g><linearGradient id="SVGID_1_" x1="9.237" x2="209.709" y1="84.176" y2="84.176" gradientUnits="userSpaceOnUse"><stop offset=".238" style="stop-color:#113bd9"/><stop offset=".74" style="stop-color:#1676ea"/><stop offset="1" style="stop-color:#188ff1"/></linearGradient><path d="M177,50.79H41.94c-18.06,0-32.71,14.64-32.71,32.71v1.37c0,18.06,14.64,32.71,32.71,32.71H177 c18.06,0,32.71-14.64,32.71-32.71v-1.37C209.71,65.43,195.07,50.79,177,50.79z" class="st1"/><path d="M176.31,50.77h-61.18c-5.06,9.68-7.93,20.69-7.93,32.36c0,12.52,3.29,24.27,9.05,34.43l60.05,0 c18.45,0,33.4-14.95,33.4-33.4v0C209.71,65.72,194.76,50.77,176.31,50.77z" class="st2"/><linearGradient id="SVGID_2_" x1="111.376" x2="251.201" y1="83.134" y2="83.134" gradientUnits="userSpaceOnUse"><stop offset="0" style="stop-color:#23c6f5"/><stop offset=".429" style="stop-color:#25cff5"/><stop offset=".996" style="stop-color:#28e3f5"/></linearGradient><circle cx="181.29" cy="83.13" r="69.91" class="st3"/></g></svg>