<svg xmlns="http://www.w3.org/2000/svg" width="1000" height="2340" viewBox="0 0 1000 2340"><rect width="999" height="2339" x="0" y="0" fill="#FFF" stroke="none" opacity="1"/><rect width="45" height="10" x="0" y="1" fill="#B4B4B4" stroke="none" opacity="1"/><text x="54" y="2" fill="#000" dy=".76em" font-family="sans-serif" font-size="12.097" opacity="1" text-anchor="start">= opaque</text><rect width="45" height="10" x="0" y="16" fill="#909090" stroke="none" opacity="1"/><text x="54" y="17" fill="#000" dy=".76em" font-family="sans-serif" font-size="12.097" opacity="1" text-anchor="start">= ignore_internal_opaque</text><rect width="45" height="10" x="0" y="30" fill="#636363" stroke="none" opacity="1"/><text x="54" y="32" fill="#000" dy=".76em" font-family="sans-serif" font-size="12.097" opacity="1" text-anchor="start">= ignore_opaque</text><text x="0" y="58" fill="#000" dy=".76em" font-family="sans-serif" font-size="12.097" opacity="1" text-anchor="start">0x1::DiemAccount</text><rect width="365" height="10" x="0" y="70" fill="#B4B4B4" stroke="none" opacity="1"/><text x="374" y="71" fill="#000" dy=".76em" font-family="sans-serif" font-size="10.484" opacity="1" text-anchor="start">13.195</text><rect width="418" height="11" x="0" y="84" fill="#909090" stroke="none" opacity="1"/><text x="427" y="86" fill="#000" dy=".76em" font-family="sans-serif" font-size="10.484" opacity="1" text-anchor="start">15.099</text><rect width="909" height="10" x="0" y="99" fill="#636363" stroke="none" opacity="1"/><text x="918" y="100" fill="#000" dy=".76em" font-family="sans-serif" font-size="10.484" opacity="1" text-anchor="start">32.803</text><text x="0" y="117" fill="#000" dy=".76em" font-family="sans-serif" font-size="12.097" opacity="1" text-anchor="start">0x1::TreasuryComplianceScripts</text><rect width="154" height="10" x="0" y="128" fill="#B4B4B4" stroke="none" opacity="1"/><text x="163" y="130" fill="#000" dy=".76em" font-family="sans-serif" font-size="10.484" opacity="1" text-anchor="start">5.558</text><rect width="169" height="10" x="0" y="143" fill="#909090" stroke="none" opacity="1"/><text x="178" y="144" fill="#000" dy=".76em" font-family="sans-serif" font-size="10.484" opacity="1" text-anchor="start">6.118</text><rect width="328" height="11" x="0" y="157" fill="#636363" stroke="none" opacity="1"/><text x="337" y="159" fill="#000" dy=".76em" font-family="sans-serif" font-size="10.484" opacity="1" text-anchor="start">11.847</text><text x="0" y="175" fill="#000" dy=".76em" font-family="sans-serif" font-size="12.097" opacity="1" text-anchor="start">0x1::Diem</text><rect width="137" height="10" x="0" y="187" fill="#B4B4B4" stroke="none" opacity="1"/><text x="146" y="188" fill="#000" dy=".76em" font-family="sans-serif" font-size="10.484" opacity="1" text-anchor="start">4.973</text><rect width="140" height="11" x="0" y="201" fill="#909090" stroke="none" opacity="1"/><text x="150" y="203" fill="#000" dy=".76em" font-family="sans-serif" font-size="10.484" opacity="1" text-anchor="start">5.087</text><rect width="163" height="10" x="0" y="216" fill="#636363" stroke="none" opacity="1"/><text x="172" y="217" fill="#000" dy=".76em" font-family="sans-serif" font-size="10.484" opacity="1" text-anchor="start">5.902</text><text x="0" y="234" fill="#000" dy=".76em" font-family="sans-serif" font-size="12.097" opacity="1" text-anchor="start">0x1::PaymentScripts</text><rect width="80" height="10" x="0" y="245" fill="#B4B4B4" stroke="none" opacity="1"/><text x="90" y="247" fill="#000" dy=".76em" font-family="sans-serif" font-size="10.484" opacity="1" text-anchor="start">2.921</text><rect width="80" height="10" x="0" y="260" fill="#909090" stroke="none" opacity="1"/><text x="89" y="261" fill="#000" dy=".76em" font-family="sans-serif" font-size="10.484" opacity="1" text-anchor="start">2.901</text><rect width="338" height="11" x="0" y="274" fill="#636363" stroke="none" opacity="1"/><text x="347" y="276" fill="#000" dy=".76em" font-family="sans-serif" font-size="10.484" opacity="1" text-anchor="start">12.199</text><text x="0" y="292" fill="#000" dy=".76em" font-family="sans-serif" font-size="12.097" opacity="1" text-anchor="start">0x1::AccountCreationScripts</text><rect width="79" height="10" x="0" y="304" fill="#B4B4B4" stroke="none" opacity="1"/><text x="88" y="305" fill="#000" dy=".76em" font-family="sans-serif" font-size="10.484" opacity="1" text-anchor="start">2.858</text><rect width="93" height="11" x="0" y="318" fill="#909090" stroke="none" opacity="1"/><text x="102" y="320" fill="#000" dy=".76em" font-family="sans-serif" font-size="10.484" opacity="1" text-anchor="start">3.368</text><rect width="274" height="10" x="0" y="333" fill="#636363" stroke="none" opacity="1"/><text x="284" y="334" fill="#000" dy=".76em" font-family="sans-serif" font-size="10.484" opacity="1" text-anchor="start">9.920</text><text x="0" y="351" fill="#000" dy=".76em" font-family="sans-serif" font-size="12.097" opacity="1" text-anchor="start">0x1::AccountAdministrationScripts</text><rect width="34" height="10" x="0" y="362" fill="#B4B4B4" stroke="none" opacity="1"/><text x="43" y="364" fill="#000" dy=".76em" font-family="sans-serif" font-size="10.484" opacity="1" text-anchor="start">1.240</text><rect width="34" height="10" x="0" y="377" fill="#909090" stroke="none" opacity="1"/><text x="43" y="378" fill="#000" dy=".76em" font-family="sans-serif" font-size="10.484" opacity="1" text-anchor="start">1.233</text><rect width="38" height="11" x="0" y="391" fill="#636363" stroke="none" opacity="1"/><text x="47" y="393" fill="#000" dy=".76em" font-family="sans-serif" font-size="10.484" opacity="1" text-anchor="start">1.372</text><text x="0" y="409" fill="#000" dy=".76em" font-family="sans-serif" font-size="12.097" opacity="1" text-anchor="start">0x1::AccountLimits</text><rect width="34" height="10" x="0" y="421" fill="#B4B4B4" stroke="none" opacity="1"/><text x="43" y="422" fill="#000" dy=".76em" font-family="sans-serif" font-size="10.484" opacity="1" text-anchor="start">1.233</text><rect width="41" height="11" x="0" y="435" fill="#909090" stroke="none" opacity="1"/><text x="50" y="437" fill="#000" dy=".76em" font-family="sans-serif" font-size="10.484" opacity="1" text-anchor="start">1.499</text><rect width="45" height="10" x="0" y="450" fill="#636363" stroke="none" opacity="1"/><text x="54" y="451" fill="#000" dy=".76em" font-family="sans-serif" font-size="10.484" opacity="1" text-anchor="start">1.627</text><text x="0" y="468" fill="#000" dy=".76em" font-family="sans-serif" font-size="12.097" opacity="1" text-anchor="start">0x1::Genesis</text><rect width="33" height="10" x="0" y="479" fill="#B4B4B4" stroke="none" opacity="1"/><text x="42" y="481" fill="#000" dy=".76em" font-family="sans-serif" font-size="10.484" opacity="1" text-anchor="start">1.198</text><rect width="38" height="10" x="0" y="494" fill="#909090" stroke="none" opacity="1"/><text x="47" y="495" fill="#000" dy=".76em" font-family="sans-serif" font-size="10.484" opacity="1" text-anchor="start">1.372</text><rect width="151" height="11" x="0" y="508" fill="#636363" stroke="none" opacity="1"/><text x="160" y="510" fill="#000" dy=".76em" font-family="sans-serif" font-size="10.484" opacity="1" text-anchor="start">5.453</text><text x="0" y="526" fill="#000" dy=".76em" font-family="sans-serif" font-size="12.097" opacity="1" text-anchor="start">0x1::ValidatorAdministrationScripts</text><rect width="32" height="10" x="0" y="538" fill="#B4B4B4" stroke="none" opacity="1"/><text x="41" y="539" fill="#000" dy=".76em" font-family="sans-serif" font-size="10.484" opacity="1" text-anchor="start">1.176</text><rect width="39" height="11" x="0" y="552" fill="#909090" stroke="none" opacity="1"/><text x="49" y="554" fill="#000" dy=".76em" font-family="sans-serif" font-size="10.484" opacity="1" text-anchor="start">1.443</text><rect width="37" height="10" x="0" y="567" fill="#636363" stroke="none" opacity="1"/><text x="46" y="568" fill="#000" dy=".76em" font-family="sans-serif" font-size="10.484" opacity="1" text-anchor="start">1.362</text><text x="0" y="585" fill="#000" dy=".76em" font-family="sans-serif" font-size="12.097" opacity="1" text-anchor="start">0x1::DesignatedDealer</text><rect width="31" height="10" x="0" y="596" fill="#B4B4B4" stroke="none" opacity="1"/><text x="40" y="598" fill="#000" dy=".76em" font-family="sans-serif" font-size="10.484" opacity="1" text-anchor="start">1.144</text><rect width="31" height="10" x="0" y="611" fill="#909090" stroke="none" opacity="1"/><text x="40" y="612" fill="#000" dy=".76em" font-family="sans-serif" font-size="10.484" opacity="1" text-anchor="start">1.139</text><rect width="44" height="11" x="0" y="625" fill="#636363" stroke="none" opacity="1"/><text x="53" y="627" fill="#000" dy=".76em" font-family="sans-serif" font-size="10.484" opacity="1" text-anchor="start">1.591</text><text x="0" y="643" fill="#000" dy=".76em" font-family="sans-serif" font-size="12.097" opacity="1" text-anchor="start">0x1::DiemSystem</text><rect width="31" height="10" x="0" y="655" fill="#B4B4B4" stroke="none" opacity="1"/><text x="40" y="656" fill="#000" dy=".76em" font-family="sans-serif" font-size="10.484" opacity="1" text-anchor="start">1.129</text><rect width="32" height="11" x="0" y="669" fill="#909090" stroke="none" opacity="1"/><text x="41" y="671" fill="#000" dy=".76em" font-family="sans-serif" font-size="10.484" opacity="1" text-anchor="start">1.184</text><rect width="32" height="10" x="0" y="684" fill="#636363" stroke="none" opacity="1"/><text x="41" y="685" fill="#000" dy=".76em" font-family="sans-serif" font-size="10.484" opacity="1" text-anchor="start">1.180</text><text x="0" y="702" fill="#000" dy=".76em" font-family="sans-serif" font-size="12.097" opacity="1" text-anchor="start">0x1::DiemTimestamp</text><rect width="30" height="10" x="0" y="713" fill="#B4B4B4" stroke="none" opacity="1"/><text x="39" y="715" fill="#000" dy=".76em" font-family="sans-serif" font-size="10.484" opacity="1" text-anchor="start">1.106</text><rect width="28" height="10" x="0" y="728" fill="#909090" stroke="none" opacity="1"/><text x="37" y="729" fill="#000" dy=".76em" font-family="sans-serif" font-size="10.484" opacity="1" text-anchor="start">1.031</text><rect width="63" height="11" x="0" y="742" fill="#636363" stroke="none" opacity="1"/><text x="73" y="744" fill="#000" dy=".76em" font-family="sans-serif" font-size="10.484" opacity="1" text-anchor="start">2.308</text><text x="0" y="760" fill="#000" dy=".76em" font-family="sans-serif" font-size="12.097" opacity="1" text-anchor="start">0x1::Roles</text><rect width="30" height="10" x="0" y="772" fill="#B4B4B4" stroke="none" opacity="1"/><text x="39" y="773" fill="#000" dy=".76em" font-family="sans-serif" font-size="10.484" opacity="1" text-anchor="start">1.085</text><rect width="29" height="11" x="0" y="786" fill="#909090" stroke="none" opacity="1"/><text x="38" y="788" fill="#000" dy=".76em" font-family="sans-serif" font-size="10.484" opacity="1" text-anchor="start">1.072</text><rect width="32" height="10" x="0" y="801" fill="#636363" stroke="none" opacity="1"/><text x="41" y="802" fill="#000" dy=".76em" font-family="sans-serif" font-size="10.484" opacity="1" text-anchor="start">1.168</text><text x="0" y="819" fill="#000" dy=".76em" font-family="sans-serif" font-size="12.097" opacity="1" text-anchor="start">0x1::TransactionFee</text><rect width="29" height="10" x="0" y="830" fill="#B4B4B4" stroke="none" opacity="1"/><text x="38" y="832" fill="#000" dy=".76em" font-family="sans-serif" font-size="10.484" opacity="1" text-anchor="start">1.070</text><rect width="29" height="10" x="0" y="845" fill="#909090" stroke="none" opacity="1"/><text x="39" y="846" fill="#000" dy=".76em" font-family="sans-serif" font-size="10.484" opacity="1" text-anchor="start">1.080</text><rect width="34" height="11" x="0" y="859" fill="#636363" stroke="none" opacity="1"/><text x="43" y="861" fill="#000" dy=".76em" font-family="sans-serif" font-size="10.484" opacity="1" text-anchor="start">1.257</text><text x="0" y="877" fill="#000" dy=".76em" font-family="sans-serif" font-size="12.097" opacity="1" text-anchor="start">0x1::DualAttestation</text><rect width="28" height="10" x="0" y="889" fill="#B4B4B4" stroke="none" opacity="1"/><text x="37" y="890" fill="#000" dy=".76em" font-family="sans-serif" font-size="10.484" opacity="1" text-anchor="start">1.015</text><rect width="29" height="11" x="0" y="903" fill="#909090" stroke="none" opacity="1"/><text x="39" y="905" fill="#000" dy=".76em" font-family="sans-serif" font-size="10.484" opacity="1" text-anchor="start">1.082</text><rect width="35" height="10" x="0" y="918" fill="#636363" stroke="none" opacity="1"/><text x="44" y="919" fill="#000" dy=".76em" font-family="sans-serif" font-size="10.484" opacity="1" text-anchor="start">1.285</text><text x="0" y="936" fill="#000" dy=".76em" font-family="sans-serif" font-size="12.097" opacity="1" text-anchor="start">0x1::VASPDomain</text><rect width="27" height="10" x="0" y="947" fill="#B4B4B4" stroke="none" opacity="1"/><text x="37" y="949" fill="#000" dy=".76em" font-family="sans-serif" font-size="10.484" opacity="1" text-anchor="start">1.010</text><rect width="28" height="10" x="0" y="962" fill="#909090" stroke="none" opacity="1"/><text x="37" y="963" fill="#000" dy=".76em" font-family="sans-serif" font-size="10.484" opacity="1" text-anchor="start">1.019</text><rect width="27" height="11" x="0" y="976" fill="#636363" stroke="none" opacity="1"/><text x="36" y="978" fill="#000" dy=".76em" font-family="sans-serif" font-size="10.484" opacity="1" text-anchor="start">0.996</text><text x="0" y="994" fill="#000" dy=".76em" font-family="sans-serif" font-size="12.097" opacity="1" text-anchor="start">0x1::DiemId</text><rect width="27" height="10" x="0" y="1006" fill="#B4B4B4" stroke="none" opacity="1"/><text x="36" y="1007" fill="#000" dy=".76em" font-family="sans-serif" font-size="10.484" opacity="1" text-anchor="start">1.007</text><rect width="27" height="11" x="0" y="1020" fill="#909090" stroke="none" opacity="1"/><text x="37" y="1022" fill="#000" dy=".76em" font-family="sans-serif" font-size="10.484" opacity="1" text-anchor="start">1.008</text><rect width="38" height="10" x="0" y="1035" fill="#636363" stroke="none" opacity="1"/><text x="47" y="1036" fill="#000" dy=".76em" font-family="sans-serif" font-size="10.484" opacity="1" text-anchor="start">1.394</text><text x="0" y="1053" fill="#000" dy=".76em" font-family="sans-serif" font-size="12.097" opacity="1" text-anchor="start">0x1::DiemConfig</text><rect width="25" height="10" x="0" y="1064" fill="#B4B4B4" stroke="none" opacity="1"/><text x="34" y="1066" fill="#000" dy=".76em" font-family="sans-serif" font-size="10.484" opacity="1" text-anchor="start">0.910</text><rect width="24" height="10" x="0" y="1079" fill="#909090" stroke="none" opacity="1"/><text x="33" y="1080" fill="#000" dy=".76em" font-family="sans-serif" font-size="10.484" opacity="1" text-anchor="start">0.894</text><rect width="25" height="11" x="0" y="1093" fill="#636363" stroke="none" opacity="1"/><text x="34" y="1095" fill="#000" dy=".76em" font-family="sans-serif" font-size="10.484" opacity="1" text-anchor="start">0.917</text><text x="0" y="1111" fill="#000" dy=".76em" font-family="sans-serif" font-size="12.097" opacity="1" text-anchor="start">0x1::XDX</text><rect width="20" height="10" x="0" y="1123" fill="#B4B4B4" stroke="none" opacity="1"/><text x="29" y="1124" fill="#000" dy=".76em" font-family="sans-serif" font-size="10.484" opacity="1" text-anchor="start">0.752</text><rect width="20" height="11" x="0" y="1137" fill="#909090" stroke="none" opacity="1"/><text x="29" y="1139" fill="#000" dy=".76em" font-family="sans-serif" font-size="10.484" opacity="1" text-anchor="start">0.751</text><rect width="21" height="10" x="0" y="1152" fill="#636363" stroke="none" opacity="1"/><text x="30" y="1153" fill="#000" dy=".76em" font-family="sans-serif" font-size="10.484" opacity="1" text-anchor="start">0.782</text><text x="0" y="1170" fill="#000" dy=".76em" font-family="sans-serif" font-size="12.097" opacity="1" text-anchor="start">0x1::ValidatorConfig</text><rect width="19" height="10" x="0" y="1181" fill="#B4B4B4" stroke="none" opacity="1"/><text x="28" y="1183" fill="#000" dy=".76em" font-family="sans-serif" font-size="10.484" opacity="1" text-anchor="start">0.710</text><rect width="19" height="10" x="0" y="1196" fill="#909090" stroke="none" opacity="1"/><text x="28" y="1197" fill="#000" dy=".76em" font-family="sans-serif" font-size="10.484" opacity="1" text-anchor="start">0.700</text><rect width="21" height="11" x="0" y="1210" fill="#636363" stroke="none" opacity="1"/><text x="30" y="1212" fill="#000" dy=".76em" font-family="sans-serif" font-size="10.484" opacity="1" text-anchor="start">0.760</text><text x="0" y="1228" fill="#000" dy=".76em" font-family="sans-serif" font-size="12.097" opacity="1" text-anchor="start">0x1::XUS</text><rect width="19" height="10" x="0" y="1240" fill="#B4B4B4" stroke="none" opacity="1"/><text x="28" y="1241" fill="#000" dy=".76em" font-family="sans-serif" font-size="10.484" opacity="1" text-anchor="start">0.692</text><rect width="18" height="11" x="0" y="1254" fill="#909090" stroke="none" opacity="1"/><text x="28" y="1256" fill="#000" dy=".76em" font-family="sans-serif" font-size="10.484" opacity="1" text-anchor="start">0.685</text><rect width="20" height="10" x="0" y="1269" fill="#636363" stroke="none" opacity="1"/><text x="29" y="1270" fill="#000" dy=".76em" font-family="sans-serif" font-size="10.484" opacity="1" text-anchor="start">0.738</text><text x="0" y="1287" fill="#000" dy=".76em" font-family="sans-serif" font-size="12.097" opacity="1" text-anchor="start">0x1::SharedEd25519PublicKey</text><rect width="18" height="10" x="0" y="1298" fill="#B4B4B4" stroke="none" opacity="1"/><text x="27" y="1300" fill="#000" dy=".76em" font-family="sans-serif" font-size="10.484" opacity="1" text-anchor="start">0.663</text><rect width="18" height="10" x="0" y="1313" fill="#909090" stroke="none" opacity="1"/><text x="27" y="1314" fill="#000" dy=".76em" font-family="sans-serif" font-size="10.484" opacity="1" text-anchor="start">0.659</text><rect width="18" height="11" x="0" y="1327" fill="#636363" stroke="none" opacity="1"/><text x="27" y="1329" fill="#000" dy=".76em" font-family="sans-serif" font-size="10.484" opacity="1" text-anchor="start">0.678</text><text x="0" y="1345" fill="#000" dy=".76em" font-family="sans-serif" font-size="12.097" opacity="1" text-anchor="start">0x1::DiemTransactionPublishingOption</text><rect width="18" height="10" x="0" y="1357" fill="#B4B4B4" stroke="none" opacity="1"/><text x="27" y="1358" fill="#000" dy=".76em" font-family="sans-serif" font-size="10.484" opacity="1" text-anchor="start">0.651</text><rect width="17" height="11" x="0" y="1371" fill="#909090" stroke="none" opacity="1"/><text x="26" y="1373" fill="#000" dy=".76em" font-family="sans-serif" font-size="10.484" opacity="1" text-anchor="start">0.641</text><rect width="18" height="10" x="0" y="1386" fill="#636363" stroke="none" opacity="1"/><text x="27" y="1387" fill="#000" dy=".76em" font-family="sans-serif" font-size="10.484" opacity="1" text-anchor="start">0.681</text><text x="0" y="1404" fill="#000" dy=".76em" font-family="sans-serif" font-size="12.097" opacity="1" text-anchor="start">0x1::RecoveryAddress</text><rect width="17" height="10" x="0" y="1415" fill="#B4B4B4" stroke="none" opacity="1"/><text x="27" y="1417" fill="#000" dy=".76em" font-family="sans-serif" font-size="10.484" opacity="1" text-anchor="start">0.649</text><rect width="17" height="10" x="0" y="1430" fill="#909090" stroke="none" opacity="1"/><text x="27" y="1431" fill="#000" dy=".76em" font-family="sans-serif" font-size="10.484" opacity="1" text-anchor="start">0.647</text><rect width="18" height="11" x="0" y="1444" fill="#636363" stroke="none" opacity="1"/><text x="27" y="1446" fill="#000" dy=".76em" font-family="sans-serif" font-size="10.484" opacity="1" text-anchor="start">0.676</text><text x="0" y="1462" fill="#000" dy=".76em" font-family="sans-serif" font-size="12.097" opacity="1" text-anchor="start">0x1::AccountFreezing</text><rect width="17" height="10" x="0" y="1474" fill="#B4B4B4" stroke="none" opacity="1"/><text x="26" y="1475" fill="#000" dy=".76em" font-family="sans-serif" font-size="10.484" opacity="1" text-anchor="start">0.639</text><rect width="17" height="11" x="0" y="1488" fill="#909090" stroke="none" opacity="1"/><text x="26" y="1490" fill="#000" dy=".76em" font-family="sans-serif" font-size="10.484" opacity="1" text-anchor="start">0.638</text><rect width="18" height="10" x="0" y="1503" fill="#636363" stroke="none" opacity="1"/><text x="27" y="1504" fill="#000" dy=".76em" font-family="sans-serif" font-size="10.484" opacity="1" text-anchor="start">0.676</text><text x="0" y="1521" fill="#000" dy=".76em" font-family="sans-serif" font-size="12.097" opacity="1" text-anchor="start">0x1::VASP</text><rect width="17" height="10" x="0" y="1532" fill="#B4B4B4" stroke="none" opacity="1"/><text x="26" y="1534" fill="#000" dy=".76em" font-family="sans-serif" font-size="10.484" opacity="1" text-anchor="start">0.626</text><rect width="17" height="10" x="0" y="1547" fill="#909090" stroke="none" opacity="1"/><text x="26" y="1548" fill="#000" dy=".76em" font-family="sans-serif" font-size="10.484" opacity="1" text-anchor="start">0.627</text><rect width="18" height="11" x="0" y="1561" fill="#636363" stroke="none" opacity="1"/><text x="27" y="1563" fill="#000" dy=".76em" font-family="sans-serif" font-size="10.484" opacity="1" text-anchor="start">0.679</text><text x="0" y="1579" fill="#000" dy=".76em" font-family="sans-serif" font-size="12.097" opacity="1" text-anchor="start">0x1::NetworkIdentity</text><rect width="16" height="10" x="0" y="1591" fill="#B4B4B4" stroke="none" opacity="1"/><text x="26" y="1592" fill="#000" dy=".76em" font-family="sans-serif" font-size="10.484" opacity="1" text-anchor="start">0.612</text><rect width="16" height="11" x="0" y="1605" fill="#909090" stroke="none" opacity="1"/><text x="26" y="1607" fill="#000" dy=".76em" font-family="sans-serif" font-size="10.484" opacity="1" text-anchor="start">0.613</text><rect width="18" height="10" x="0" y="1620" fill="#636363" stroke="none" opacity="1"/><text x="27" y="1621" fill="#000" dy=".76em" font-family="sans-serif" font-size="10.484" opacity="1" text-anchor="start">0.658</text><text x="0" y="1638" fill="#000" dy=".76em" font-family="sans-serif" font-size="12.097" opacity="1" text-anchor="start">0x1::DiemBlock</text><rect width="16" height="10" x="0" y="1649" fill="#B4B4B4" stroke="none" opacity="1"/><text x="25" y="1651" fill="#000" dy=".76em" font-family="sans-serif" font-size="10.484" opacity="1" text-anchor="start">0.606</text><rect width="16" height="10" x="0" y="1664" fill="#909090" stroke="none" opacity="1"/><text x="25" y="1665" fill="#000" dy=".76em" font-family="sans-serif" font-size="10.484" opacity="1" text-anchor="start">0.597</text><rect width="18" height="11" x="0" y="1678" fill="#636363" stroke="none" opacity="1"/><text x="27" y="1680" fill="#000" dy=".76em" font-family="sans-serif" font-size="10.484" opacity="1" text-anchor="start">0.669</text><text x="0" y="1696" fill="#000" dy=".76em" font-family="sans-serif" font-size="12.097" opacity="1" text-anchor="start">0x1::SystemAdministrationScripts</text><rect width="16" height="10" x="0" y="1708" fill="#B4B4B4" stroke="none" opacity="1"/><text x="25" y="1709" fill="#000" dy=".76em" font-family="sans-serif" font-size="10.484" opacity="1" text-anchor="start">0.594</text><rect width="23" height="11" x="0" y="1722" fill="#909090" stroke="none" opacity="1"/><text x="32" y="1724" fill="#000" dy=".76em" font-family="sans-serif" font-size="10.484" opacity="1" text-anchor="start">0.837</text><rect width="17" height="10" x="0" y="1737" fill="#636363" stroke="none" opacity="1"/><text x="26" y="1738" fill="#000" dy=".76em" font-family="sans-serif" font-size="10.484" opacity="1" text-anchor="start">0.634</text><text x="0" y="1755" fill="#000" dy=".76em" font-family="sans-serif" font-size="12.097" opacity="1" text-anchor="start">0x1::RegisteredCurrencies</text><rect width="16" height="10" x="0" y="1766" fill="#B4B4B4" stroke="none" opacity="1"/><text x="25" y="1768" fill="#000" dy=".76em" font-family="sans-serif" font-size="10.484" opacity="1" text-anchor="start">0.589</text><rect width="16" height="10" x="0" y="1781" fill="#909090" stroke="none" opacity="1"/><text x="25" y="1782" fill="#000" dy=".76em" font-family="sans-serif" font-size="10.484" opacity="1" text-anchor="start">0.586</text><rect width="16" height="11" x="0" y="1795" fill="#636363" stroke="none" opacity="1"/><text x="25" y="1797" fill="#000" dy=".76em" font-family="sans-serif" font-size="10.484" opacity="1" text-anchor="start">0.587</text><text x="0" y="1813" fill="#000" dy=".76em" font-family="sans-serif" font-size="12.097" opacity="1" text-anchor="start">0x1::DiemVMConfig</text><rect width="15" height="10" x="0" y="1825" fill="#B4B4B4" stroke="none" opacity="1"/><text x="25" y="1826" fill="#000" dy=".76em" font-family="sans-serif" font-size="10.484" opacity="1" text-anchor="start">0.577</text><rect width="16" height="11" x="0" y="1839" fill="#909090" stroke="none" opacity="1"/><text x="25" y="1841" fill="#000" dy=".76em" font-family="sans-serif" font-size="10.484" opacity="1" text-anchor="start">0.583</text><rect width="19" height="10" x="0" y="1854" fill="#636363" stroke="none" opacity="1"/><text x="28" y="1855" fill="#000" dy=".76em" font-family="sans-serif" font-size="10.484" opacity="1" text-anchor="start">0.693</text><text x="0" y="1872" fill="#000" dy=".76em" font-family="sans-serif" font-size="12.097" opacity="1" text-anchor="start">0x1::Authenticator</text><rect width="15" height="10" x="0" y="1883" fill="#B4B4B4" stroke="none" opacity="1"/><text x="24" y="1885" fill="#000" dy=".76em" font-family="sans-serif" font-size="10.484" opacity="1" text-anchor="start">0.564</text><rect width="15" height="10" x="0" y="1898" fill="#909090" stroke="none" opacity="1"/><text x="24" y="1899" fill="#000" dy=".76em" font-family="sans-serif" font-size="10.484" opacity="1" text-anchor="start">0.563</text><rect width="15" height="11" x="0" y="1912" fill="#636363" stroke="none" opacity="1"/><text x="24" y="1914" fill="#000" dy=".76em" font-family="sans-serif" font-size="10.484" opacity="1" text-anchor="start">0.564</text><text x="0" y="1930" fill="#000" dy=".76em" font-family="sans-serif" font-size="12.097" opacity="1" text-anchor="start">0x1::DiemConsensusConfig</text><rect width="15" height="10" x="0" y="1942" fill="#B4B4B4" stroke="none" opacity="1"/><text x="24" y="1943" fill="#000" dy=".76em" font-family="sans-serif" font-size="10.484" opacity="1" text-anchor="start">0.554</text><rect width="15" height="11" x="0" y="1956" fill="#909090" stroke="none" opacity="1"/><text x="24" y="1958" fill="#000" dy=".76em" font-family="sans-serif" font-size="10.484" opacity="1" text-anchor="start">0.550</text><rect width="16" height="10" x="0" y="1971" fill="#636363" stroke="none" opacity="1"/><text x="25" y="1972" fill="#000" dy=".76em" font-family="sans-serif" font-size="10.484" opacity="1" text-anchor="start">0.597</text><text x="0" y="1989" fill="#000" dy=".76em" font-family="sans-serif" font-size="12.097" opacity="1" text-anchor="start">0x1::DiemVersion</text><rect width="15" height="10" x="0" y="2000" fill="#B4B4B4" stroke="none" opacity="1"/><text x="24" y="2002" fill="#000" dy=".76em" font-family="sans-serif" font-size="10.484" opacity="1" text-anchor="start">0.553</text><rect width="15" height="10" x="0" y="2015" fill="#909090" stroke="none" opacity="1"/><text x="24" y="2016" fill="#000" dy=".76em" font-family="sans-serif" font-size="10.484" opacity="1" text-anchor="start">0.556</text><rect width="17" height="11" x="0" y="2029" fill="#636363" stroke="none" opacity="1"/><text x="27" y="2031" fill="#000" dy=".76em" font-family="sans-serif" font-size="10.484" opacity="1" text-anchor="start">0.648</text><text x="0" y="2047" fill="#000" dy=".76em" font-family="sans-serif" font-size="12.097" opacity="1" text-anchor="start">0x1::ValidatorOperatorConfig</text><rect width="15" height="10" x="0" y="2059" fill="#B4B4B4" stroke="none" opacity="1"/><text x="24" y="2060" fill="#000" dy=".76em" font-family="sans-serif" font-size="10.484" opacity="1" text-anchor="start">0.548</text><rect width="15" height="11" x="0" y="2073" fill="#909090" stroke="none" opacity="1"/><text x="24" y="2075" fill="#000" dy=".76em" font-family="sans-serif" font-size="10.484" opacity="1" text-anchor="start">0.542</text><rect width="15" height="10" x="0" y="2088" fill="#636363" stroke="none" opacity="1"/><text x="24" y="2089" fill="#000" dy=".76em" font-family="sans-serif" font-size="10.484" opacity="1" text-anchor="start">0.567</text><text x="0" y="2106" fill="#000" dy=".76em" font-family="sans-serif" font-size="12.097" opacity="1" text-anchor="start">0x1::CoreAddresses</text><rect width="14" height="10" x="0" y="2117" fill="#B4B4B4" stroke="none" opacity="1"/><text x="24" y="2119" fill="#000" dy=".76em" font-family="sans-serif" font-size="10.484" opacity="1" text-anchor="start">0.541</text><rect width="14" height="10" x="0" y="2132" fill="#909090" stroke="none" opacity="1"/><text x="23" y="2133" fill="#000" dy=".76em" font-family="sans-serif" font-size="10.484" opacity="1" text-anchor="start">0.530</text><rect width="27" height="11" x="0" y="2146" fill="#636363" stroke="none" opacity="1"/><text x="36" y="2148" fill="#000" dy=".76em" font-family="sans-serif" font-size="10.484" opacity="1" text-anchor="start">0.976</text><text x="0" y="2164" fill="#000" dy=".76em" font-family="sans-serif" font-size="12.097" opacity="1" text-anchor="start">0x1::ChainId</text><rect width="14" height="10" x="0" y="2176" fill="#B4B4B4" stroke="none" opacity="1"/><text x="23" y="2177" fill="#000" dy=".76em" font-family="sans-serif" font-size="10.484" opacity="1" text-anchor="start">0.537</text><rect width="14" height="11" x="0" y="2190" fill="#909090" stroke="none" opacity="1"/><text x="23" y="2192" fill="#000" dy=".76em" font-family="sans-serif" font-size="10.484" opacity="1" text-anchor="start">0.528</text><rect width="14" height="10" x="0" y="2205" fill="#636363" stroke="none" opacity="1"/><text x="24" y="2206" fill="#000" dy=".76em" font-family="sans-serif" font-size="10.484" opacity="1" text-anchor="start">0.539</text><text x="0" y="2223" fill="#000" dy=".76em" font-family="sans-serif" font-size="12.097" opacity="1" text-anchor="start">0x1::SlidingNonce</text><rect width="14" height="10" x="0" y="2234" fill="#B4B4B4" stroke="none" opacity="1"/><text x="23" y="2236" fill="#000" dy=".76em" font-family="sans-serif" font-size="10.484" opacity="1" text-anchor="start">0.529</text><rect width="14" height="10" x="0" y="2249" fill="#909090" stroke="none" opacity="1"/><text x="23" y="2250" fill="#000" dy=".76em" font-family="sans-serif" font-size="10.484" opacity="1" text-anchor="start">0.529</text><rect width="14" height="11" x="0" y="2263" fill="#636363" stroke="none" opacity="1"/><text x="24" y="2265" fill="#000" dy=".76em" font-family="sans-serif" font-size="10.484" opacity="1" text-anchor="start">0.541</text><text x="0" y="2281" fill="#000" dy=".76em" font-family="sans-serif" font-size="12.097" opacity="1" text-anchor="start">0x1::Signature</text><rect width="10" height="10" x="0" y="2293" fill="#B4B4B4" stroke="none" opacity="1"/><text x="19" y="2294" fill="#000" dy=".76em" font-family="sans-serif" font-size="10.484" opacity="1" text-anchor="start">0.381</text><rect width="10" height="11" x="0" y="2307" fill="#909090" stroke="none" opacity="1"/><text x="19" y="2309" fill="#000" dy=".76em" font-family="sans-serif" font-size="10.484" opacity="1" text-anchor="start">0.380</text><rect width="10" height="10" x="0" y="2322" fill="#636363" stroke="none" opacity="1"/><text x="19" y="2323" fill="#000" dy=".76em" font-family="sans-serif" font-size="10.484" opacity="1" text-anchor="start">0.380</text></svg>