<svg xmlns="http://www.w3.org/2000/svg" width="1000" height="2340" viewBox="0 0 1000 2340"><rect width="999" height="2339" x="0" y="0" fill="#FFF" stroke="none" opacity="1"/><rect width="45" height="7" x="0" y="0" fill="#B4B4B4" stroke="none" opacity="1"/><text x="54" y="1" fill="#000" dy=".76em" font-family="sans-serif" font-size="12.097" opacity="1" text-anchor="start">= boogie_array</text><rect width="45" height="7" x="0" y="10" fill="#909090" stroke="none" opacity="1"/><text x="54" y="11" fill="#000" dy=".76em" font-family="sans-serif" font-size="12.097" opacity="1" text-anchor="start">= boogie_array_intern</text><rect width="45" height="7" x="0" y="20" fill="#636363" stroke="none" opacity="1"/><text x="54" y="21" fill="#000" dy=".76em" font-family="sans-serif" font-size="12.097" opacity="1" text-anchor="start">= smt_array</text><rect width="45" height="7" x="0" y="30" fill="#494848" stroke="none" opacity="1"/><text x="54" y="31" fill="#000" dy=".76em" font-family="sans-serif" font-size="12.097" opacity="1" text-anchor="start">= smt_array_ext</text><rect width="45" height="7" x="0" y="39" fill="#000" stroke="none" opacity="1"/><text x="54" y="40" fill="#000" dy=".76em" font-family="sans-serif" font-size="12.097" opacity="1" text-anchor="start">= smt_seq</text><text x="0" y="58" fill="#000" dy=".76em" font-family="sans-serif" font-size="12.097" opacity="1" text-anchor="start">0x1::DiemAccount</text><rect width="909" height="7" x="0" y="66" fill="#B4B4B4" stroke="none" opacity="1"/><text x="918" y="67" fill="#000" dy=".76em" font-family="sans-serif" font-size="10.484" opacity="1" text-anchor="start">12.052</text><rect width="906" height="6" x="0" y="76" fill="#909090" stroke="none" opacity="1"/><text x="915" y="77" fill="#000" dy=".76em" font-family="sans-serif" font-size="10.484" opacity="1" text-anchor="start">error</text><rect width="899" height="7" x="0" y="85" fill="#636363" stroke="none" opacity="1"/><text x="908" y="86" fill="#000" dy=".76em" font-family="sans-serif" font-size="10.484" opacity="1" text-anchor="start">11.928</text><rect width="909" height="7" x="0" y="95" fill="none" stroke="#494848" opacity="1"/><text x="918" y="96" fill="#000" dy=".76em" font-family="sans-serif" font-size="10.484" opacity="1" text-anchor="start">timeout</text><rect width="909" height="7" x="0" y="105" fill="none" stroke="#000" opacity="1"/><text x="918" y="106" fill="#000" dy=".76em" font-family="sans-serif" font-size="10.484" opacity="1" text-anchor="start">timeout</text><text x="0" y="117" fill="#000" dy=".76em" font-family="sans-serif" font-size="12.097" opacity="1" text-anchor="start">0x1::TreasuryComplianceScripts</text><rect width="393" height="7" x="0" y="124" fill="#B4B4B4" stroke="none" opacity="1"/><text x="402" y="125" fill="#000" dy=".76em" font-family="sans-serif" font-size="10.484" opacity="1" text-anchor="start">5.213</text><rect width="416" height="7" x="0" y="134" fill="#909090" stroke="none" opacity="1"/><text x="425" y="135" fill="#000" dy=".76em" font-family="sans-serif" font-size="10.484" opacity="1" text-anchor="start">5.522</text><rect width="379" height="7" x="0" y="144" fill="#636363" stroke="none" opacity="1"/><text x="388" y="145" fill="#000" dy=".76em" font-family="sans-serif" font-size="10.484" opacity="1" text-anchor="start">5.026</text><rect width="485" height="6" x="0" y="154" fill="#494848" stroke="none" opacity="1"/><text x="494" y="155" fill="#000" dy=".76em" font-family="sans-serif" font-size="10.484" opacity="1" text-anchor="start">6.434</text><rect width="909" height="7" x="0" y="163" fill="none" stroke="#000" opacity="1"/><text x="918" y="164" fill="#000" dy=".76em" font-family="sans-serif" font-size="10.484" opacity="1" text-anchor="start">timeout</text><text x="0" y="175" fill="#000" dy=".76em" font-family="sans-serif" font-size="12.097" opacity="1" text-anchor="start">0x1::Diem</text><rect width="355" height="7" x="0" y="183" fill="#B4B4B4" stroke="none" opacity="1"/><text x="364" y="184" fill="#000" dy=".76em" font-family="sans-serif" font-size="10.484" opacity="1" text-anchor="start">4.716</text><rect width="379" height="6" x="0" y="193" fill="#909090" stroke="none" opacity="1"/><text x="388" y="194" fill="#000" dy=".76em" font-family="sans-serif" font-size="10.484" opacity="1" text-anchor="start">error</text><rect width="362" height="7" x="0" y="202" fill="#636363" stroke="none" opacity="1"/><text x="371" y="203" fill="#000" dy=".76em" font-family="sans-serif" font-size="10.484" opacity="1" text-anchor="start">4.809</text><rect width="611" height="7" x="0" y="212" fill="#494848" stroke="none" opacity="1"/><text x="620" y="213" fill="#000" dy=".76em" font-family="sans-serif" font-size="10.484" opacity="1" text-anchor="start">8.107</text><rect width="909" height="7" x="0" y="222" fill="none" stroke="#000" opacity="1"/><text x="918" y="223" fill="#000" dy=".76em" font-family="sans-serif" font-size="10.484" opacity="1" text-anchor="start">timeout</text><text x="0" y="234" fill="#000" dy=".76em" font-family="sans-serif" font-size="12.097" opacity="1" text-anchor="start">0x1::PaymentScripts</text><rect width="204" height="7" x="0" y="241" fill="#B4B4B4" stroke="none" opacity="1"/><text x="213" y="242" fill="#000" dy=".76em" font-family="sans-serif" font-size="10.484" opacity="1" text-anchor="start">2.707</text><rect width="204" height="7" x="0" y="251" fill="#909090" stroke="none" opacity="1"/><text x="214" y="252" fill="#000" dy=".76em" font-family="sans-serif" font-size="10.484" opacity="1" text-anchor="start">2.717</text><rect width="177" height="7" x="0" y="261" fill="#636363" stroke="none" opacity="1"/><text x="186" y="262" fill="#000" dy=".76em" font-family="sans-serif" font-size="10.484" opacity="1" text-anchor="start">2.350</text><rect width="216" height="6" x="0" y="271" fill="#494848" stroke="none" opacity="1"/><text x="225" y="272" fill="#000" dy=".76em" font-family="sans-serif" font-size="10.484" opacity="1" text-anchor="start">2.867</text><rect width="909" height="7" x="0" y="280" fill="none" stroke="#000" opacity="1"/><text x="918" y="281" fill="#000" dy=".76em" font-family="sans-serif" font-size="10.484" opacity="1" text-anchor="start">timeout</text><text x="0" y="292" fill="#000" dy=".76em" font-family="sans-serif" font-size="12.097" opacity="1" text-anchor="start">0x1::AccountCreationScripts</text><rect width="199" height="7" x="0" y="300" fill="#B4B4B4" stroke="none" opacity="1"/><text x="208" y="301" fill="#000" dy=".76em" font-family="sans-serif" font-size="10.484" opacity="1" text-anchor="start">2.641</text><rect width="201" height="6" x="0" y="310" fill="#909090" stroke="none" opacity="1"/><text x="210" y="311" fill="#000" dy=".76em" font-family="sans-serif" font-size="10.484" opacity="1" text-anchor="start">2.673</text><rect width="199" height="7" x="0" y="319" fill="#636363" stroke="none" opacity="1"/><text x="208" y="320" fill="#000" dy=".76em" font-family="sans-serif" font-size="10.484" opacity="1" text-anchor="start">2.646</text><rect width="232" height="7" x="0" y="329" fill="#494848" stroke="none" opacity="1"/><text x="241" y="330" fill="#000" dy=".76em" font-family="sans-serif" font-size="10.484" opacity="1" text-anchor="start">3.088</text><rect width="282" height="7" x="0" y="339" fill="#000" stroke="none" opacity="1"/><text x="291" y="340" fill="#000" dy=".76em" font-family="sans-serif" font-size="10.484" opacity="1" text-anchor="start">3.742</text><text x="0" y="351" fill="#000" dy=".76em" font-family="sans-serif" font-size="12.097" opacity="1" text-anchor="start">0x1::AccountLimits</text><rect width="89" height="7" x="0" y="358" fill="#B4B4B4" stroke="none" opacity="1"/><text x="98" y="359" fill="#000" dy=".76em" font-family="sans-serif" font-size="10.484" opacity="1" text-anchor="start">1.186</text><rect width="98" height="7" x="0" y="368" fill="#909090" stroke="none" opacity="1"/><text x="107" y="369" fill="#000" dy=".76em" font-family="sans-serif" font-size="10.484" opacity="1" text-anchor="start">1.302</text><rect width="106" height="7" x="0" y="378" fill="#636363" stroke="none" opacity="1"/><text x="115" y="379" fill="#000" dy=".76em" font-family="sans-serif" font-size="10.484" opacity="1" text-anchor="start">1.411</text><rect width="109" height="6" x="0" y="388" fill="#494848" stroke="none" opacity="1"/><text x="118" y="389" fill="#000" dy=".76em" font-family="sans-serif" font-size="10.484" opacity="1" text-anchor="start">1.454</text><rect width="103" height="7" x="0" y="397" fill="#000" stroke="none" opacity="1"/><text x="112" y="398" fill="#000" dy=".76em" font-family="sans-serif" font-size="10.484" opacity="1" text-anchor="start">1.370</text><text x="0" y="409" fill="#000" dy=".76em" font-family="sans-serif" font-size="12.097" opacity="1" text-anchor="start">0x1::AccountAdministrationScripts</text><rect width="89" height="7" x="0" y="417" fill="#B4B4B4" stroke="none" opacity="1"/><text x="98" y="418" fill="#000" dy=".76em" font-family="sans-serif" font-size="10.484" opacity="1" text-anchor="start">1.183</text><rect width="90" height="6" x="0" y="427" fill="#909090" stroke="none" opacity="1"/><text x="99" y="428" fill="#000" dy=".76em" font-family="sans-serif" font-size="10.484" opacity="1" text-anchor="start">1.204</text><rect width="89" height="7" x="0" y="436" fill="#636363" stroke="none" opacity="1"/><text x="98" y="437" fill="#000" dy=".76em" font-family="sans-serif" font-size="10.484" opacity="1" text-anchor="start">1.183</text><rect width="193" height="7" x="0" y="446" fill="#494848" stroke="none" opacity="1"/><text x="202" y="447" fill="#000" dy=".76em" font-family="sans-serif" font-size="10.484" opacity="1" text-anchor="start">2.571</text><rect width="909" height="7" x="0" y="456" fill="none" stroke="#000" opacity="1"/><text x="918" y="457" fill="#000" dy=".76em" font-family="sans-serif" font-size="10.484" opacity="1" text-anchor="start">timeout</text><text x="0" y="468" fill="#000" dy=".76em" font-family="sans-serif" font-size="12.097" opacity="1" text-anchor="start">0x1::ValidatorAdministrationScripts</text><rect width="82" height="7" x="0" y="475" fill="#B4B4B4" stroke="none" opacity="1"/><text x="91" y="476" fill="#000" dy=".76em" font-family="sans-serif" font-size="10.484" opacity="1" text-anchor="start">1.096</text><rect width="77" height="7" x="0" y="485" fill="#909090" stroke="none" opacity="1"/><text x="87" y="486" fill="#000" dy=".76em" font-family="sans-serif" font-size="10.484" opacity="1" text-anchor="start">1.034</text><rect width="89" height="7" x="0" y="495" fill="#636363" stroke="none" opacity="1"/><text x="98" y="496" fill="#000" dy=".76em" font-family="sans-serif" font-size="10.484" opacity="1" text-anchor="start">1.183</text><rect width="101" height="6" x="0" y="505" fill="#494848" stroke="none" opacity="1"/><text x="110" y="506" fill="#000" dy=".76em" font-family="sans-serif" font-size="10.484" opacity="1" text-anchor="start">1.348</text><rect width="909" height="7" x="0" y="514" fill="none" stroke="#000" opacity="1"/><text x="918" y="515" fill="#000" dy=".76em" font-family="sans-serif" font-size="10.484" opacity="1" text-anchor="start">timeout</text><text x="0" y="526" fill="#000" dy=".76em" font-family="sans-serif" font-size="12.097" opacity="1" text-anchor="start">0x1::Genesis</text><rect width="82" height="7" x="0" y="534" fill="#B4B4B4" stroke="none" opacity="1"/><text x="91" y="535" fill="#000" dy=".76em" font-family="sans-serif" font-size="10.484" opacity="1" text-anchor="start">1.096</text><rect width="82" height="6" x="0" y="544" fill="#909090" stroke="none" opacity="1"/><text x="91" y="545" fill="#000" dy=".76em" font-family="sans-serif" font-size="10.484" opacity="1" text-anchor="start">1.099</text><rect width="81" height="7" x="0" y="553" fill="#636363" stroke="none" opacity="1"/><text x="90" y="554" fill="#000" dy=".76em" font-family="sans-serif" font-size="10.484" opacity="1" text-anchor="start">1.086</text><rect width="88" height="7" x="0" y="563" fill="#494848" stroke="none" opacity="1"/><text x="97" y="564" fill="#000" dy=".76em" font-family="sans-serif" font-size="10.484" opacity="1" text-anchor="start">1.171</text><rect width="86" height="7" x="0" y="573" fill="#000" stroke="none" opacity="1"/><text x="95" y="574" fill="#000" dy=".76em" font-family="sans-serif" font-size="10.484" opacity="1" text-anchor="start">1.147</text><text x="0" y="585" fill="#000" dy=".76em" font-family="sans-serif" font-size="12.097" opacity="1" text-anchor="start">0x1::DesignatedDealer</text><rect width="79" height="7" x="0" y="592" fill="#B4B4B4" stroke="none" opacity="1"/><text x="88" y="593" fill="#000" dy=".76em" font-family="sans-serif" font-size="10.484" opacity="1" text-anchor="start">1.054</text><rect width="78" height="7" x="0" y="602" fill="#909090" stroke="none" opacity="1"/><text x="88" y="603" fill="#000" dy=".76em" font-family="sans-serif" font-size="10.484" opacity="1" text-anchor="start">1.047</text><rect width="80" height="7" x="0" y="612" fill="#636363" stroke="none" opacity="1"/><text x="89" y="613" fill="#000" dy=".76em" font-family="sans-serif" font-size="10.484" opacity="1" text-anchor="start">1.071</text><rect width="105" height="6" x="0" y="622" fill="#494848" stroke="none" opacity="1"/><text x="114" y="623" fill="#000" dy=".76em" font-family="sans-serif" font-size="10.484" opacity="1" text-anchor="start">1.397</text><rect width="86" height="7" x="0" y="631" fill="#000" stroke="none" opacity="1"/><text x="96" y="632" fill="#000" dy=".76em" font-family="sans-serif" font-size="10.484" opacity="1" text-anchor="start">1.153</text><text x="0" y="643" fill="#000" dy=".76em" font-family="sans-serif" font-size="12.097" opacity="1" text-anchor="start">0x1::DiemSystem</text><rect width="77" height="7" x="0" y="651" fill="#B4B4B4" stroke="none" opacity="1"/><text x="87" y="652" fill="#000" dy=".76em" font-family="sans-serif" font-size="10.484" opacity="1" text-anchor="start">1.034</text><rect width="76" height="6" x="0" y="661" fill="#909090" stroke="none" opacity="1"/><text x="85" y="662" fill="#000" dy=".76em" font-family="sans-serif" font-size="10.484" opacity="1" text-anchor="start">error</text><rect width="78" height="7" x="0" y="670" fill="#636363" stroke="none" opacity="1"/><text x="87" y="671" fill="#000" dy=".76em" font-family="sans-serif" font-size="10.484" opacity="1" text-anchor="start">1.046</text><rect width="98" height="7" x="0" y="680" fill="#494848" stroke="none" opacity="1"/><text x="108" y="681" fill="#000" dy=".76em" font-family="sans-serif" font-size="10.484" opacity="1" text-anchor="start">1.312</text><rect width="909" height="7" x="0" y="690" fill="none" stroke="#000" opacity="1"/><text x="918" y="691" fill="#000" dy=".76em" font-family="sans-serif" font-size="10.484" opacity="1" text-anchor="start">timeout</text><text x="0" y="702" fill="#000" dy=".76em" font-family="sans-serif" font-size="12.097" opacity="1" text-anchor="start">0x1::Roles</text><rect width="77" height="7" x="0" y="709" fill="#B4B4B4" stroke="none" opacity="1"/><text x="86" y="710" fill="#000" dy=".76em" font-family="sans-serif" font-size="10.484" opacity="1" text-anchor="start">1.021</text><rect width="75" height="7" x="0" y="719" fill="#909090" stroke="none" opacity="1"/><text x="84" y="720" fill="#000" dy=".76em" font-family="sans-serif" font-size="10.484" opacity="1" text-anchor="start">0.997</text><rect width="76" height="7" x="0" y="729" fill="#636363" stroke="none" opacity="1"/><text x="85" y="730" fill="#000" dy=".76em" font-family="sans-serif" font-size="10.484" opacity="1" text-anchor="start">1.018</text><rect width="81" height="6" x="0" y="739" fill="#494848" stroke="none" opacity="1"/><text x="90" y="740" fill="#000" dy=".76em" font-family="sans-serif" font-size="10.484" opacity="1" text-anchor="start">1.086</text><rect width="72" height="7" x="0" y="748" fill="#000" stroke="none" opacity="1"/><text x="81" y="749" fill="#000" dy=".76em" font-family="sans-serif" font-size="10.484" opacity="1" text-anchor="start">0.964</text><text x="0" y="760" fill="#000" dy=".76em" font-family="sans-serif" font-size="12.097" opacity="1" text-anchor="start">0x1::TransactionFee</text><rect width="74" height="7" x="0" y="768" fill="#B4B4B4" stroke="none" opacity="1"/><text x="83" y="769" fill="#000" dy=".76em" font-family="sans-serif" font-size="10.484" opacity="1" text-anchor="start">0.988</text><rect width="77" height="6" x="0" y="778" fill="#909090" stroke="none" opacity="1"/><text x="86" y="779" fill="#000" dy=".76em" font-family="sans-serif" font-size="10.484" opacity="1" text-anchor="start">1.029</text><rect width="84" height="7" x="0" y="787" fill="#636363" stroke="none" opacity="1"/><text x="93" y="788" fill="#000" dy=".76em" font-family="sans-serif" font-size="10.484" opacity="1" text-anchor="start">1.120</text><rect width="83" height="7" x="0" y="797" fill="#494848" stroke="none" opacity="1"/><text x="92" y="798" fill="#000" dy=".76em" font-family="sans-serif" font-size="10.484" opacity="1" text-anchor="start">1.105</text><rect width="80" height="7" x="0" y="807" fill="#000" stroke="none" opacity="1"/><text x="89" y="808" fill="#000" dy=".76em" font-family="sans-serif" font-size="10.484" opacity="1" text-anchor="start">1.066</text><text x="0" y="819" fill="#000" dy=".76em" font-family="sans-serif" font-size="12.097" opacity="1" text-anchor="start">0x1::DiemTimestamp</text><rect width="72" height="7" x="0" y="826" fill="#B4B4B4" stroke="none" opacity="1"/><text x="81" y="827" fill="#000" dy=".76em" font-family="sans-serif" font-size="10.484" opacity="1" text-anchor="start">0.958</text><rect width="72" height="7" x="0" y="836" fill="#909090" stroke="none" opacity="1"/><text x="81" y="837" fill="#000" dy=".76em" font-family="sans-serif" font-size="10.484" opacity="1" text-anchor="start">0.960</text><rect width="72" height="7" x="0" y="846" fill="#636363" stroke="none" opacity="1"/><text x="81" y="847" fill="#000" dy=".76em" font-family="sans-serif" font-size="10.484" opacity="1" text-anchor="start">0.962</text><rect width="81" height="6" x="0" y="856" fill="#494848" stroke="none" opacity="1"/><text x="90" y="857" fill="#000" dy=".76em" font-family="sans-serif" font-size="10.484" opacity="1" text-anchor="start">1.080</text><rect width="70" height="7" x="0" y="865" fill="#000" stroke="none" opacity="1"/><text x="79" y="866" fill="#000" dy=".76em" font-family="sans-serif" font-size="10.484" opacity="1" text-anchor="start">0.937</text><text x="0" y="877" fill="#000" dy=".76em" font-family="sans-serif" font-size="12.097" opacity="1" text-anchor="start">0x1::DualAttestation</text><rect width="72" height="7" x="0" y="885" fill="#B4B4B4" stroke="none" opacity="1"/><text x="81" y="886" fill="#000" dy=".76em" font-family="sans-serif" font-size="10.484" opacity="1" text-anchor="start">0.955</text><rect width="71" height="6" x="0" y="895" fill="#909090" stroke="none" opacity="1"/><text x="80" y="896" fill="#000" dy=".76em" font-family="sans-serif" font-size="10.484" opacity="1" text-anchor="start">0.953</text><rect width="74" height="7" x="0" y="904" fill="#636363" stroke="none" opacity="1"/><text x="83" y="905" fill="#000" dy=".76em" font-family="sans-serif" font-size="10.484" opacity="1" text-anchor="start">0.985</text><rect width="77" height="7" x="0" y="914" fill="#494848" stroke="none" opacity="1"/><text x="86" y="915" fill="#000" dy=".76em" font-family="sans-serif" font-size="10.484" opacity="1" text-anchor="start">1.033</text><rect width="78" height="7" x="0" y="924" fill="#000" stroke="none" opacity="1"/><text x="87" y="925" fill="#000" dy=".76em" font-family="sans-serif" font-size="10.484" opacity="1" text-anchor="start">1.041</text><text x="0" y="936" fill="#000" dy=".76em" font-family="sans-serif" font-size="12.097" opacity="1" text-anchor="start">0x1::VASPDomain</text><rect width="71" height="7" x="0" y="943" fill="#B4B4B4" stroke="none" opacity="1"/><text x="80" y="944" fill="#000" dy=".76em" font-family="sans-serif" font-size="10.484" opacity="1" text-anchor="start">0.945</text><rect width="57" height="7" x="0" y="953" fill="#909090" stroke="none" opacity="1"/><text x="66" y="954" fill="#000" dy=".76em" font-family="sans-serif" font-size="10.484" opacity="1" text-anchor="start">0.764</text><rect width="76" height="7" x="0" y="963" fill="#636363" stroke="none" opacity="1"/><text x="85" y="964" fill="#000" dy=".76em" font-family="sans-serif" font-size="10.484" opacity="1" text-anchor="start">1.017</text><rect width="61" height="6" x="0" y="973" fill="#494848" stroke="none" opacity="1"/><text x="70" y="974" fill="#000" dy=".76em" font-family="sans-serif" font-size="10.484" opacity="1" text-anchor="start">0.819</text><rect width="909" height="7" x="0" y="982" fill="none" stroke="#000" opacity="1"/><text x="918" y="983" fill="#000" dy=".76em" font-family="sans-serif" font-size="10.484" opacity="1" text-anchor="start">timeout</text><text x="0" y="994" fill="#000" dy=".76em" font-family="sans-serif" font-size="12.097" opacity="1" text-anchor="start">0x1::DiemId</text><rect width="70" height="7" x="0" y="1002" fill="#B4B4B4" stroke="none" opacity="1"/><text x="79" y="1003" fill="#000" dy=".76em" font-family="sans-serif" font-size="10.484" opacity="1" text-anchor="start">0.935</text><rect width="61" height="6" x="0" y="1012" fill="#909090" stroke="none" opacity="1"/><text x="70" y="1013" fill="#000" dy=".76em" font-family="sans-serif" font-size="10.484" opacity="1" text-anchor="start">0.818</text><rect width="58" height="7" x="0" y="1021" fill="#636363" stroke="none" opacity="1"/><text x="67" y="1022" fill="#000" dy=".76em" font-family="sans-serif" font-size="10.484" opacity="1" text-anchor="start">0.770</text><rect width="66" height="7" x="0" y="1031" fill="#494848" stroke="none" opacity="1"/><text x="75" y="1032" fill="#000" dy=".76em" font-family="sans-serif" font-size="10.484" opacity="1" text-anchor="start">0.882</text><rect width="909" height="7" x="0" y="1041" fill="none" stroke="#000" opacity="1"/><text x="918" y="1042" fill="#000" dy=".76em" font-family="sans-serif" font-size="10.484" opacity="1" text-anchor="start">timeout</text><text x="0" y="1053" fill="#000" dy=".76em" font-family="sans-serif" font-size="12.097" opacity="1" text-anchor="start">0x1::DiemConfig</text><rect width="63" height="7" x="0" y="1060" fill="#B4B4B4" stroke="none" opacity="1"/><text x="72" y="1061" fill="#000" dy=".76em" font-family="sans-serif" font-size="10.484" opacity="1" text-anchor="start">0.836</text><rect width="64" height="7" x="0" y="1070" fill="#909090" stroke="none" opacity="1"/><text x="73" y="1071" fill="#000" dy=".76em" font-family="sans-serif" font-size="10.484" opacity="1" text-anchor="start">0.861</text><rect width="62" height="7" x="0" y="1080" fill="#636363" stroke="none" opacity="1"/><text x="71" y="1081" fill="#000" dy=".76em" font-family="sans-serif" font-size="10.484" opacity="1" text-anchor="start">0.833</text><rect width="70" height="6" x="0" y="1090" fill="#494848" stroke="none" opacity="1"/><text x="79" y="1091" fill="#000" dy=".76em" font-family="sans-serif" font-size="10.484" opacity="1" text-anchor="start">0.930</text><rect width="63" height="7" x="0" y="1099" fill="#000" stroke="none" opacity="1"/><text x="72" y="1100" fill="#000" dy=".76em" font-family="sans-serif" font-size="10.484" opacity="1" text-anchor="start">0.845</text><text x="0" y="1111" fill="#000" dy=".76em" font-family="sans-serif" font-size="12.097" opacity="1" text-anchor="start">0x1::XDX</text><rect width="52" height="7" x="0" y="1119" fill="#B4B4B4" stroke="none" opacity="1"/><text x="61" y="1120" fill="#000" dy=".76em" font-family="sans-serif" font-size="10.484" opacity="1" text-anchor="start">0.698</text><rect width="61" height="6" x="0" y="1129" fill="#909090" stroke="none" opacity="1"/><text x="70" y="1130" fill="#000" dy=".76em" font-family="sans-serif" font-size="10.484" opacity="1" text-anchor="start">0.817</text><rect width="58" height="7" x="0" y="1138" fill="#636363" stroke="none" opacity="1"/><text x="67" y="1139" fill="#000" dy=".76em" font-family="sans-serif" font-size="10.484" opacity="1" text-anchor="start">0.774</text><rect width="58" height="7" x="0" y="1148" fill="#494848" stroke="none" opacity="1"/><text x="67" y="1149" fill="#000" dy=".76em" font-family="sans-serif" font-size="10.484" opacity="1" text-anchor="start">0.776</text><rect width="909" height="7" x="0" y="1158" fill="none" stroke="#000" opacity="1"/><text x="918" y="1159" fill="#000" dy=".76em" font-family="sans-serif" font-size="10.484" opacity="1" text-anchor="start">timeout</text><text x="0" y="1170" fill="#000" dy=".76em" font-family="sans-serif" font-size="12.097" opacity="1" text-anchor="start">0x1::ValidatorConfig</text><rect width="50" height="7" x="0" y="1177" fill="#B4B4B4" stroke="none" opacity="1"/><text x="59" y="1178" fill="#000" dy=".76em" font-family="sans-serif" font-size="10.484" opacity="1" text-anchor="start">0.672</text><rect width="51" height="7" x="0" y="1187" fill="#909090" stroke="none" opacity="1"/><text x="60" y="1188" fill="#000" dy=".76em" font-family="sans-serif" font-size="10.484" opacity="1" text-anchor="start">0.681</text><rect width="52" height="7" x="0" y="1197" fill="#636363" stroke="none" opacity="1"/><text x="61" y="1198" fill="#000" dy=".76em" font-family="sans-serif" font-size="10.484" opacity="1" text-anchor="start">0.696</text><rect width="59" height="6" x="0" y="1207" fill="#494848" stroke="none" opacity="1"/><text x="68" y="1208" fill="#000" dy=".76em" font-family="sans-serif" font-size="10.484" opacity="1" text-anchor="start">0.783</text><rect width="58" height="7" x="0" y="1216" fill="#000" stroke="none" opacity="1"/><text x="67" y="1217" fill="#000" dy=".76em" font-family="sans-serif" font-size="10.484" opacity="1" text-anchor="start">0.775</text><text x="0" y="1228" fill="#000" dy=".76em" font-family="sans-serif" font-size="12.097" opacity="1" text-anchor="start">0x1::XUS</text><rect width="47" height="7" x="0" y="1236" fill="#B4B4B4" stroke="none" opacity="1"/><text x="56" y="1237" fill="#000" dy=".76em" font-family="sans-serif" font-size="10.484" opacity="1" text-anchor="start">0.631</text><rect width="48" height="6" x="0" y="1246" fill="#909090" stroke="none" opacity="1"/><text x="58" y="1247" fill="#000" dy=".76em" font-family="sans-serif" font-size="10.484" opacity="1" text-anchor="start">0.649</text><rect width="52" height="7" x="0" y="1255" fill="#636363" stroke="none" opacity="1"/><text x="61" y="1256" fill="#000" dy=".76em" font-family="sans-serif" font-size="10.484" opacity="1" text-anchor="start">0.696</text><rect width="53" height="7" x="0" y="1265" fill="#494848" stroke="none" opacity="1"/><text x="62" y="1266" fill="#000" dy=".76em" font-family="sans-serif" font-size="10.484" opacity="1" text-anchor="start">0.709</text><rect width="909" height="7" x="0" y="1275" fill="none" stroke="#000" opacity="1"/><text x="918" y="1276" fill="#000" dy=".76em" font-family="sans-serif" font-size="10.484" opacity="1" text-anchor="start">timeout</text><text x="0" y="1287" fill="#000" dy=".76em" font-family="sans-serif" font-size="12.097" opacity="1" text-anchor="start">0x1::SharedEd25519PublicKey</text><rect width="46" height="7" x="0" y="1294" fill="#B4B4B4" stroke="none" opacity="1"/><text x="55" y="1295" fill="#000" dy=".76em" font-family="sans-serif" font-size="10.484" opacity="1" text-anchor="start">0.618</text><rect width="46" height="7" x="0" y="1304" fill="#909090" stroke="none" opacity="1"/><text x="55" y="1305" fill="#000" dy=".76em" font-family="sans-serif" font-size="10.484" opacity="1" text-anchor="start">0.621</text><rect width="46" height="7" x="0" y="1314" fill="#636363" stroke="none" opacity="1"/><text x="55" y="1315" fill="#000" dy=".76em" font-family="sans-serif" font-size="10.484" opacity="1" text-anchor="start">0.621</text><rect width="50" height="6" x="0" y="1324" fill="#494848" stroke="none" opacity="1"/><text x="59" y="1325" fill="#000" dy=".76em" font-family="sans-serif" font-size="10.484" opacity="1" text-anchor="start">0.674</text><rect width="49" height="7" x="0" y="1333" fill="#000" stroke="none" opacity="1"/><text x="58" y="1334" fill="#000" dy=".76em" font-family="sans-serif" font-size="10.484" opacity="1" text-anchor="start">0.654</text><text x="0" y="1345" fill="#000" dy=".76em" font-family="sans-serif" font-size="12.097" opacity="1" text-anchor="start">0x1::RecoveryAddress</text><rect width="46" height="7" x="0" y="1353" fill="#B4B4B4" stroke="none" opacity="1"/><text x="55" y="1354" fill="#000" dy=".76em" font-family="sans-serif" font-size="10.484" opacity="1" text-anchor="start">0.615</text><rect width="46" height="6" x="0" y="1363" fill="#909090" stroke="none" opacity="1"/><text x="55" y="1364" fill="#000" dy=".76em" font-family="sans-serif" font-size="10.484" opacity="1" text-anchor="start">0.619</text><rect width="45" height="7" x="0" y="1372" fill="#636363" stroke="none" opacity="1"/><text x="54" y="1373" fill="#000" dy=".76em" font-family="sans-serif" font-size="10.484" opacity="1" text-anchor="start">0.605</text><rect width="69" height="7" x="0" y="1382" fill="#494848" stroke="none" opacity="1"/><text x="78" y="1383" fill="#000" dy=".76em" font-family="sans-serif" font-size="10.484" opacity="1" text-anchor="start">0.917</text><rect width="909" height="7" x="0" y="1392" fill="none" stroke="#000" opacity="1"/><text x="918" y="1393" fill="#000" dy=".76em" font-family="sans-serif" font-size="10.484" opacity="1" text-anchor="start">timeout</text><text x="0" y="1404" fill="#000" dy=".76em" font-family="sans-serif" font-size="12.097" opacity="1" text-anchor="start">0x1::DiemTransactionPublishingOption</text><rect width="45" height="7" x="0" y="1411" fill="#B4B4B4" stroke="none" opacity="1"/><text x="54" y="1412" fill="#000" dy=".76em" font-family="sans-serif" font-size="10.484" opacity="1" text-anchor="start">0.603</text><rect width="46" height="7" x="0" y="1421" fill="#909090" stroke="none" opacity="1"/><text x="55" y="1422" fill="#000" dy=".76em" font-family="sans-serif" font-size="10.484" opacity="1" text-anchor="start">0.610</text><rect width="44" height="7" x="0" y="1431" fill="#636363" stroke="none" opacity="1"/><text x="53" y="1432" fill="#000" dy=".76em" font-family="sans-serif" font-size="10.484" opacity="1" text-anchor="start">0.594</text><rect width="50" height="6" x="0" y="1441" fill="#494848" stroke="none" opacity="1"/><text x="59" y="1442" fill="#000" dy=".76em" font-family="sans-serif" font-size="10.484" opacity="1" text-anchor="start">0.673</text><rect width="51" height="7" x="0" y="1450" fill="#000" stroke="none" opacity="1"/><text x="60" y="1451" fill="#000" dy=".76em" font-family="sans-serif" font-size="10.484" opacity="1" text-anchor="start">0.678</text><text x="0" y="1462" fill="#000" dy=".76em" font-family="sans-serif" font-size="12.097" opacity="1" text-anchor="start">0x1::AccountFreezing</text><rect width="45" height="7" x="0" y="1470" fill="#B4B4B4" stroke="none" opacity="1"/><text x="54" y="1471" fill="#000" dy=".76em" font-family="sans-serif" font-size="10.484" opacity="1" text-anchor="start">0.597</text><rect width="45" height="6" x="0" y="1480" fill="#909090" stroke="none" opacity="1"/><text x="54" y="1481" fill="#000" dy=".76em" font-family="sans-serif" font-size="10.484" opacity="1" text-anchor="start">0.598</text><rect width="44" height="7" x="0" y="1489" fill="#636363" stroke="none" opacity="1"/><text x="53" y="1490" fill="#000" dy=".76em" font-family="sans-serif" font-size="10.484" opacity="1" text-anchor="start">0.585</text><rect width="50" height="7" x="0" y="1499" fill="#494848" stroke="none" opacity="1"/><text x="59" y="1500" fill="#000" dy=".76em" font-family="sans-serif" font-size="10.484" opacity="1" text-anchor="start">0.667</text><rect width="45" height="7" x="0" y="1509" fill="#000" stroke="none" opacity="1"/><text x="54" y="1510" fill="#000" dy=".76em" font-family="sans-serif" font-size="10.484" opacity="1" text-anchor="start">0.603</text><text x="0" y="1521" fill="#000" dy=".76em" font-family="sans-serif" font-size="12.097" opacity="1" text-anchor="start">0x1::VASP</text><rect width="44" height="7" x="0" y="1528" fill="#B4B4B4" stroke="none" opacity="1"/><text x="53" y="1529" fill="#000" dy=".76em" font-family="sans-serif" font-size="10.484" opacity="1" text-anchor="start">0.585</text><rect width="44" height="7" x="0" y="1538" fill="#909090" stroke="none" opacity="1"/><text x="53" y="1539" fill="#000" dy=".76em" font-family="sans-serif" font-size="10.484" opacity="1" text-anchor="start">0.593</text><rect width="49" height="7" x="0" y="1548" fill="#636363" stroke="none" opacity="1"/><text x="58" y="1549" fill="#000" dy=".76em" font-family="sans-serif" font-size="10.484" opacity="1" text-anchor="start">0.662</text><rect width="50" height="6" x="0" y="1558" fill="#494848" stroke="none" opacity="1"/><text x="59" y="1559" fill="#000" dy=".76em" font-family="sans-serif" font-size="10.484" opacity="1" text-anchor="start">0.672</text><rect width="49" height="7" x="0" y="1567" fill="#000" stroke="none" opacity="1"/><text x="58" y="1568" fill="#000" dy=".76em" font-family="sans-serif" font-size="10.484" opacity="1" text-anchor="start">0.657</text><text x="0" y="1579" fill="#000" dy=".76em" font-family="sans-serif" font-size="12.097" opacity="1" text-anchor="start">0x1::NetworkIdentity</text><rect width="42" height="7" x="0" y="1587" fill="#B4B4B4" stroke="none" opacity="1"/><text x="51" y="1588" fill="#000" dy=".76em" font-family="sans-serif" font-size="10.484" opacity="1" text-anchor="start">0.568</text><rect width="42" height="6" x="0" y="1597" fill="#909090" stroke="none" opacity="1"/><text x="52" y="1598" fill="#000" dy=".76em" font-family="sans-serif" font-size="10.484" opacity="1" text-anchor="start">0.570</text><rect width="42" height="7" x="0" y="1606" fill="#636363" stroke="none" opacity="1"/><text x="52" y="1607" fill="#000" dy=".76em" font-family="sans-serif" font-size="10.484" opacity="1" text-anchor="start">0.570</text><rect width="47" height="7" x="0" y="1616" fill="#494848" stroke="none" opacity="1"/><text x="56" y="1617" fill="#000" dy=".76em" font-family="sans-serif" font-size="10.484" opacity="1" text-anchor="start">0.628</text><rect width="909" height="7" x="0" y="1626" fill="none" stroke="#000" opacity="1"/><text x="918" y="1627" fill="#000" dy=".76em" font-family="sans-serif" font-size="10.484" opacity="1" text-anchor="start">timeout</text><text x="0" y="1638" fill="#000" dy=".76em" font-family="sans-serif" font-size="12.097" opacity="1" text-anchor="start">0x1::DiemBlock</text><rect width="41" height="7" x="0" y="1645" fill="#B4B4B4" stroke="none" opacity="1"/><text x="50" y="1646" fill="#000" dy=".76em" font-family="sans-serif" font-size="10.484" opacity="1" text-anchor="start">0.555</text><rect width="42" height="7" x="0" y="1655" fill="#909090" stroke="none" opacity="1"/><text x="51" y="1656" fill="#000" dy=".76em" font-family="sans-serif" font-size="10.484" opacity="1" text-anchor="start">0.565</text><rect width="42" height="7" x="0" y="1665" fill="#636363" stroke="none" opacity="1"/><text x="51" y="1666" fill="#000" dy=".76em" font-family="sans-serif" font-size="10.484" opacity="1" text-anchor="start">0.561</text><rect width="45" height="6" x="0" y="1675" fill="#494848" stroke="none" opacity="1"/><text x="54" y="1676" fill="#000" dy=".76em" font-family="sans-serif" font-size="10.484" opacity="1" text-anchor="start">0.604</text><rect width="45" height="7" x="0" y="1684" fill="#000" stroke="none" opacity="1"/><text x="54" y="1685" fill="#000" dy=".76em" font-family="sans-serif" font-size="10.484" opacity="1" text-anchor="start">0.599</text><text x="0" y="1696" fill="#000" dy=".76em" font-family="sans-serif" font-size="12.097" opacity="1" text-anchor="start">0x1::SystemAdministrationScripts</text><rect width="40" height="7" x="0" y="1704" fill="#B4B4B4" stroke="none" opacity="1"/><text x="49" y="1705" fill="#000" dy=".76em" font-family="sans-serif" font-size="10.484" opacity="1" text-anchor="start">0.541</text><rect width="41" height="6" x="0" y="1714" fill="#909090" stroke="none" opacity="1"/><text x="50" y="1715" fill="#000" dy=".76em" font-family="sans-serif" font-size="10.484" opacity="1" text-anchor="start">0.553</text><rect width="41" height="7" x="0" y="1723" fill="#636363" stroke="none" opacity="1"/><text x="50" y="1724" fill="#000" dy=".76em" font-family="sans-serif" font-size="10.484" opacity="1" text-anchor="start">0.545</text><rect width="43" height="7" x="0" y="1733" fill="#494848" stroke="none" opacity="1"/><text x="52" y="1734" fill="#000" dy=".76em" font-family="sans-serif" font-size="10.484" opacity="1" text-anchor="start">0.582</text><rect width="45" height="7" x="0" y="1743" fill="#000" stroke="none" opacity="1"/><text x="54" y="1744" fill="#000" dy=".76em" font-family="sans-serif" font-size="10.484" opacity="1" text-anchor="start">0.607</text><text x="0" y="1755" fill="#000" dy=".76em" font-family="sans-serif" font-size="12.097" opacity="1" text-anchor="start">0x1::RegisteredCurrencies</text><rect width="40" height="7" x="0" y="1762" fill="#B4B4B4" stroke="none" opacity="1"/><text x="49" y="1763" fill="#000" dy=".76em" font-family="sans-serif" font-size="10.484" opacity="1" text-anchor="start">0.537</text><rect width="47" height="7" x="0" y="1772" fill="#909090" stroke="none" opacity="1"/><text x="57" y="1773" fill="#000" dy=".76em" font-family="sans-serif" font-size="10.484" opacity="1" text-anchor="start">0.636</text><rect width="40" height="7" x="0" y="1782" fill="#636363" stroke="none" opacity="1"/><text x="49" y="1783" fill="#000" dy=".76em" font-family="sans-serif" font-size="10.484" opacity="1" text-anchor="start">0.540</text><rect width="45" height="6" x="0" y="1792" fill="#494848" stroke="none" opacity="1"/><text x="54" y="1793" fill="#000" dy=".76em" font-family="sans-serif" font-size="10.484" opacity="1" text-anchor="start">0.608</text><rect width="909" height="7" x="0" y="1801" fill="none" stroke="#000" opacity="1"/><text x="918" y="1802" fill="#000" dy=".76em" font-family="sans-serif" font-size="10.484" opacity="1" text-anchor="start">timeout</text><text x="0" y="1813" fill="#000" dy=".76em" font-family="sans-serif" font-size="12.097" opacity="1" text-anchor="start">0x1::DiemVMConfig</text><rect width="40" height="7" x="0" y="1821" fill="#B4B4B4" stroke="none" opacity="1"/><text x="49" y="1822" fill="#000" dy=".76em" font-family="sans-serif" font-size="10.484" opacity="1" text-anchor="start">0.533</text><rect width="41" height="6" x="0" y="1831" fill="#909090" stroke="none" opacity="1"/><text x="50" y="1832" fill="#000" dy=".76em" font-family="sans-serif" font-size="10.484" opacity="1" text-anchor="start">0.545</text><rect width="40" height="7" x="0" y="1840" fill="#636363" stroke="none" opacity="1"/><text x="49" y="1841" fill="#000" dy=".76em" font-family="sans-serif" font-size="10.484" opacity="1" text-anchor="start">0.535</text><rect width="43" height="7" x="0" y="1850" fill="#494848" stroke="none" opacity="1"/><text x="52" y="1851" fill="#000" dy=".76em" font-family="sans-serif" font-size="10.484" opacity="1" text-anchor="start">0.575</text><rect width="43" height="7" x="0" y="1860" fill="#000" stroke="none" opacity="1"/><text x="53" y="1861" fill="#000" dy=".76em" font-family="sans-serif" font-size="10.484" opacity="1" text-anchor="start">0.583</text><text x="0" y="1872" fill="#000" dy=".76em" font-family="sans-serif" font-size="12.097" opacity="1" text-anchor="start">0x1::Authenticator</text><rect width="38" height="7" x="0" y="1879" fill="#B4B4B4" stroke="none" opacity="1"/><text x="47" y="1880" fill="#000" dy=".76em" font-family="sans-serif" font-size="10.484" opacity="1" text-anchor="start">0.515</text><rect width="39" height="7" x="0" y="1889" fill="#909090" stroke="none" opacity="1"/><text x="48" y="1890" fill="#000" dy=".76em" font-family="sans-serif" font-size="10.484" opacity="1" text-anchor="start">0.529</text><rect width="39" height="7" x="0" y="1899" fill="#636363" stroke="none" opacity="1"/><text x="48" y="1900" fill="#000" dy=".76em" font-family="sans-serif" font-size="10.484" opacity="1" text-anchor="start">0.520</text><rect width="40" height="6" x="0" y="1909" fill="#494848" stroke="none" opacity="1"/><text x="49" y="1910" fill="#000" dy=".76em" font-family="sans-serif" font-size="10.484" opacity="1" text-anchor="start">0.536</text><rect width="909" height="7" x="0" y="1918" fill="none" stroke="#000" opacity="1"/><text x="918" y="1919" fill="#000" dy=".76em" font-family="sans-serif" font-size="10.484" opacity="1" text-anchor="start">timeout</text><text x="0" y="1930" fill="#000" dy=".76em" font-family="sans-serif" font-size="12.097" opacity="1" text-anchor="start">0x1::DiemConsensusConfig</text><rect width="38" height="7" x="0" y="1938" fill="#B4B4B4" stroke="none" opacity="1"/><text x="47" y="1939" fill="#000" dy=".76em" font-family="sans-serif" font-size="10.484" opacity="1" text-anchor="start">0.515</text><rect width="38" height="6" x="0" y="1948" fill="#909090" stroke="none" opacity="1"/><text x="47" y="1949" fill="#000" dy=".76em" font-family="sans-serif" font-size="10.484" opacity="1" text-anchor="start">0.510</text><rect width="38" height="7" x="0" y="1957" fill="#636363" stroke="none" opacity="1"/><text x="47" y="1958" fill="#000" dy=".76em" font-family="sans-serif" font-size="10.484" opacity="1" text-anchor="start">0.512</text><rect width="42" height="7" x="0" y="1967" fill="#494848" stroke="none" opacity="1"/><text x="51" y="1968" fill="#000" dy=".76em" font-family="sans-serif" font-size="10.484" opacity="1" text-anchor="start">0.561</text><rect width="41" height="7" x="0" y="1977" fill="#000" stroke="none" opacity="1"/><text x="50" y="1978" fill="#000" dy=".76em" font-family="sans-serif" font-size="10.484" opacity="1" text-anchor="start">0.546</text><text x="0" y="1989" fill="#000" dy=".76em" font-family="sans-serif" font-size="12.097" opacity="1" text-anchor="start">0x1::DiemVersion</text><rect width="38" height="7" x="0" y="1996" fill="#B4B4B4" stroke="none" opacity="1"/><text x="47" y="1997" fill="#000" dy=".76em" font-family="sans-serif" font-size="10.484" opacity="1" text-anchor="start">0.513</text><rect width="38" height="7" x="0" y="2006" fill="#909090" stroke="none" opacity="1"/><text x="47" y="2007" fill="#000" dy=".76em" font-family="sans-serif" font-size="10.484" opacity="1" text-anchor="start">0.513</text><rect width="38" height="7" x="0" y="2016" fill="#636363" stroke="none" opacity="1"/><text x="47" y="2017" fill="#000" dy=".76em" font-family="sans-serif" font-size="10.484" opacity="1" text-anchor="start">0.510</text><rect width="41" height="6" x="0" y="2026" fill="#494848" stroke="none" opacity="1"/><text x="50" y="2027" fill="#000" dy=".76em" font-family="sans-serif" font-size="10.484" opacity="1" text-anchor="start">0.554</text><rect width="40" height="7" x="0" y="2035" fill="#000" stroke="none" opacity="1"/><text x="49" y="2036" fill="#000" dy=".76em" font-family="sans-serif" font-size="10.484" opacity="1" text-anchor="start">0.541</text><text x="0" y="2047" fill="#000" dy=".76em" font-family="sans-serif" font-size="12.097" opacity="1" text-anchor="start">0x1::ValidatorOperatorConfig</text><rect width="37" height="7" x="0" y="2055" fill="#B4B4B4" stroke="none" opacity="1"/><text x="46" y="2056" fill="#000" dy=".76em" font-family="sans-serif" font-size="10.484" opacity="1" text-anchor="start">0.503</text><rect width="38" height="6" x="0" y="2065" fill="#909090" stroke="none" opacity="1"/><text x="47" y="2066" fill="#000" dy=".76em" font-family="sans-serif" font-size="10.484" opacity="1" text-anchor="start">0.504</text><rect width="37" height="7" x="0" y="2074" fill="#636363" stroke="none" opacity="1"/><text x="46" y="2075" fill="#000" dy=".76em" font-family="sans-serif" font-size="10.484" opacity="1" text-anchor="start">0.503</text><rect width="43" height="7" x="0" y="2084" fill="#494848" stroke="none" opacity="1"/><text x="52" y="2085" fill="#000" dy=".76em" font-family="sans-serif" font-size="10.484" opacity="1" text-anchor="start">0.573</text><rect width="40" height="7" x="0" y="2094" fill="#000" stroke="none" opacity="1"/><text x="49" y="2095" fill="#000" dy=".76em" font-family="sans-serif" font-size="10.484" opacity="1" text-anchor="start">0.531</text><text x="0" y="2106" fill="#000" dy=".76em" font-family="sans-serif" font-size="12.097" opacity="1" text-anchor="start">0x1::CoreAddresses</text><rect width="37" height="7" x="0" y="2113" fill="#B4B4B4" stroke="none" opacity="1"/><text x="46" y="2114" fill="#000" dy=".76em" font-family="sans-serif" font-size="10.484" opacity="1" text-anchor="start">0.491</text><rect width="37" height="7" x="0" y="2123" fill="#909090" stroke="none" opacity="1"/><text x="46" y="2124" fill="#000" dy=".76em" font-family="sans-serif" font-size="10.484" opacity="1" text-anchor="start">0.494</text><rect width="36" height="7" x="0" y="2133" fill="#636363" stroke="none" opacity="1"/><text x="45" y="2134" fill="#000" dy=".76em" font-family="sans-serif" font-size="10.484" opacity="1" text-anchor="start">0.489</text><rect width="42" height="6" x="0" y="2143" fill="#494848" stroke="none" opacity="1"/><text x="52" y="2144" fill="#000" dy=".76em" font-family="sans-serif" font-size="10.484" opacity="1" text-anchor="start">0.570</text><rect width="39" height="7" x="0" y="2152" fill="#000" stroke="none" opacity="1"/><text x="48" y="2153" fill="#000" dy=".76em" font-family="sans-serif" font-size="10.484" opacity="1" text-anchor="start">0.519</text><text x="0" y="2164" fill="#000" dy=".76em" font-family="sans-serif" font-size="12.097" opacity="1" text-anchor="start">0x1::SlidingNonce</text><rect width="36" height="7" x="0" y="2172" fill="#B4B4B4" stroke="none" opacity="1"/><text x="46" y="2173" fill="#000" dy=".76em" font-family="sans-serif" font-size="10.484" opacity="1" text-anchor="start">0.490</text><rect width="36" height="6" x="0" y="2182" fill="#909090" stroke="none" opacity="1"/><text x="45" y="2183" fill="#000" dy=".76em" font-family="sans-serif" font-size="10.484" opacity="1" text-anchor="start">0.486</text><rect width="36" height="7" x="0" y="2191" fill="#636363" stroke="none" opacity="1"/><text x="45" y="2192" fill="#000" dy=".76em" font-family="sans-serif" font-size="10.484" opacity="1" text-anchor="start">0.487</text><rect width="42" height="7" x="0" y="2201" fill="#494848" stroke="none" opacity="1"/><text x="51" y="2202" fill="#000" dy=".76em" font-family="sans-serif" font-size="10.484" opacity="1" text-anchor="start">0.566</text><rect width="37" height="7" x="0" y="2211" fill="#000" stroke="none" opacity="1"/><text x="46" y="2212" fill="#000" dy=".76em" font-family="sans-serif" font-size="10.484" opacity="1" text-anchor="start">0.497</text><text x="0" y="2223" fill="#000" dy=".76em" font-family="sans-serif" font-size="12.097" opacity="1" text-anchor="start">0x1::ChainId</text><rect width="36" height="7" x="0" y="2230" fill="#B4B4B4" stroke="none" opacity="1"/><text x="45" y="2231" fill="#000" dy=".76em" font-family="sans-serif" font-size="10.484" opacity="1" text-anchor="start">0.486</text><rect width="36" height="7" x="0" y="2240" fill="#909090" stroke="none" opacity="1"/><text x="45" y="2241" fill="#000" dy=".76em" font-family="sans-serif" font-size="10.484" opacity="1" text-anchor="start">0.486</text><rect width="36" height="7" x="0" y="2250" fill="#636363" stroke="none" opacity="1"/><text x="45" y="2251" fill="#000" dy=".76em" font-family="sans-serif" font-size="10.484" opacity="1" text-anchor="start">0.487</text><rect width="42" height="6" x="0" y="2260" fill="#494848" stroke="none" opacity="1"/><text x="51" y="2261" fill="#000" dy=".76em" font-family="sans-serif" font-size="10.484" opacity="1" text-anchor="start">0.558</text><rect width="37" height="7" x="0" y="2269" fill="#000" stroke="none" opacity="1"/><text x="46" y="2270" fill="#000" dy=".76em" font-family="sans-serif" font-size="10.484" opacity="1" text-anchor="start">0.503</text><text x="0" y="2281" fill="#000" dy=".76em" font-family="sans-serif" font-size="12.097" opacity="1" text-anchor="start">0x1::Signature</text><rect width="26" height="7" x="0" y="2289" fill="#B4B4B4" stroke="none" opacity="1"/><text x="35" y="2290" fill="#000" dy=".76em" font-family="sans-serif" font-size="10.484" opacity="1" text-anchor="start">0.350</text><rect width="26" height="6" x="0" y="2299" fill="#909090" stroke="none" opacity="1"/><text x="35" y="2300" fill="#000" dy=".76em" font-family="sans-serif" font-size="10.484" opacity="1" text-anchor="start">0.351</text><rect width="26" height="7" x="0" y="2308" fill="#636363" stroke="none" opacity="1"/><text x="35" y="2309" fill="#000" dy=".76em" font-family="sans-serif" font-size="10.484" opacity="1" text-anchor="start">0.350</text><rect width="30" height="7" x="0" y="2318" fill="#494848" stroke="none" opacity="1"/><text x="39" y="2319" fill="#000" dy=".76em" font-family="sans-serif" font-size="10.484" opacity="1" text-anchor="start">0.406</text><rect width="25" height="7" x="0" y="2328" fill="#000" stroke="none" opacity="1"/><text x="35" y="2329" fill="#000" dy=".76em" font-family="sans-serif" font-size="10.484" opacity="1" text-anchor="start">0.344</text></svg>